<svg width="22" height="22" viewBox="0 0 22 22" fill="none" xmlns="http://www.w3.org/2000/svg">
<g clip-path="url(#clip0_1649_4928)">
<path d="M21.9997 15.2287C21.8278 15.6053 21.5356 15.7192 21.136 15.7148C15.3821 15.7061 8.99961 15.7104 3.24141 15.7104C3.24141 15.2725 3.24141 14.8345 3.24141 14.3966C8.78476 14.3966 14.9566 14.3966 20.5 14.401C20.6633 14.401 20.7149 14.3659 20.7149 14.1907C20.7106 10.3893 20.7106 6.58338 20.7149 2.78191C20.7149 2.60673 20.6633 2.57169 20.5 2.57169C14.9566 2.57607 8.78476 2.57607 3.24141 2.57607C3.22852 2.13811 3.2629 1.69577 3.14258 1.26657C3.23712 1.26657 3.32736 1.26219 3.4219 1.26219C9.11564 1.26219 15.4423 1.26657 21.136 1.25781C21.5356 1.25781 21.8278 1.3673 21.9997 1.74395C21.9997 6.23741 21.9997 10.7309 21.9997 15.2287Z" fill="#EB5757"/>
<path d="M3.77143 14.1789C3.77143 14.6086 3.77143 15.0383 3.77143 15.4681C3.77143 17.4061 3.76725 19.3442 3.76725 21.2866C3.76725 21.6046 3.64182 21.8367 3.34914 21.9613C3.33242 21.9699 3.31988 21.9871 3.30733 22C2.35823 22 1.41331 22 0.464212 22C0.104641 21.8281 -0.00406578 21.5359 0.00011528 21.1362C0.00847742 14.8063 0.00429532 8.47629 0.00429532 2.15064C0.00429532 2.0561 0.00429532 1.96586 0.00429532 1.87131C0.0419248 0.539142 1.38823 -0.359 2.58401 0.139491C3.11082 0.358654 3.44949 0.771201 3.67108 1.29547C3.78816 1.71661 3.75471 2.15064 3.76725 2.58037C3.76725 2.63194 3.76307 2.67921 3.76307 2.73078C3.76307 6.49955 3.76307 10.264 3.76307 14.0327C3.76725 14.08 3.77143 14.1273 3.77143 14.1789ZM1.25861 11.2094C1.25861 12.0904 1.25861 12.9713 1.25861 13.8523C1.25861 16.0697 1.25861 18.2914 1.25443 20.5088C1.25443 20.6678 1.28788 20.7194 1.44676 20.7108C1.71853 20.6979 1.9903 20.6893 2.26207 20.7108C2.48366 20.7323 2.51711 20.642 2.51711 20.4401C2.51293 14.3164 2.51293 8.19701 2.51293 2.07329C2.51293 2.00883 2.51711 1.94437 2.50875 1.87991C2.47948 1.61777 2.34987 1.42439 2.10737 1.32555C1.86069 1.22671 1.63909 1.28687 1.45094 1.46307C1.29206 1.61347 1.25443 1.81115 1.25443 2.03032C1.25861 5.09431 1.25861 8.15402 1.25861 11.2094Z" fill="#F17E00"/>
<path d="M12.2579 11.9436C14.1673 11.9436 15.7151 10.3958 15.7151 8.48644C15.7151 6.57711 14.1673 5.0293 12.2579 5.0293C10.3486 5.0293 8.80078 6.57711 8.80078 8.48644C8.80078 10.3958 10.3486 11.9436 12.2579 11.9436Z" fill="#EB5757"/>
</g>
<defs>
<clipPath id="clip0_1649_4928">
<rect width="22" height="22" fill="white"/>
</clipPath>
</defs>
</svg>
