<svg width="22" height="22" viewBox="0 0 22 22" fill="none" xmlns="http://www.w3.org/2000/svg">
<g clip-path="url(#clip0_1649_4943)">
<path d="M11.9806 5.24023L15.1234 10.2688" stroke="#F17E00" stroke-width="2.5"/>
<path d="M6.32422 5.24023L9.46708 10.2688" stroke="#F17E00" stroke-width="2.5"/>
<path d="M20.1133 10.6864V10.0579C20.1133 7.28065 17.862 5.0293 15.0848 5.0293H6.91334C4.13613 5.0293 1.88477 7.28065 1.88477 10.0579V10.6864" stroke="#F17E00" stroke-width="2.5"/>
<path d="M19.4852 10.2148H2.51373C1.55906 10.2148 0.785156 10.9888 0.785156 11.9434V15.0863C0.785156 16.0409 1.55906 16.8148 2.51373 16.8148H19.4852C20.4398 16.8148 21.2137 16.0409 21.2137 15.0863V11.9434C21.2137 10.9888 20.4398 10.2148 19.4852 10.2148Z" stroke="#F0D500" stroke-width="2.5"/>
<mask id="mask0_1649_4943" style="mask-type:alpha" maskUnits="userSpaceOnUse" x="8" y="9" width="6" height="9">
<path d="M8.17188 10.6859C8.17188 9.99153 8.7347 9.42871 9.42902 9.42871H12.5719C13.2662 9.42871 13.829 9.99153 13.829 10.6859V17.6001H8.17188V10.6859Z" fill="white"/>
</mask>
<g mask="url(#mask0_1649_4943)">
<path d="M8.17188 10.6859C8.17188 9.99153 8.7347 9.42871 9.42902 9.42871H12.5719C13.2662 9.42871 13.829 9.99153 13.829 10.6859V17.6001H8.17188V10.6859Z" stroke="#8DBF33" stroke-width="5"/>
</g>
</g>
<defs>
<clipPath id="clip0_1649_4943">
<rect width="22" height="22" fill="white"/>
</clipPath>
</defs>
</svg>
