<svg width="22" height="22" viewBox="0 0 22 22" fill="none" xmlns="http://www.w3.org/2000/svg">
<g clip-path="url(#clip0_1649_4955)">
<path d="M17.2439 0.00875591C17.5756 0.105095 17.9159 0.0919585 18.252 0.135749C19.1395 0.249604 20.0184 0.424766 20.8801 0.66999C21.1343 0.744433 21.298 0.919598 21.3712 1.17358C21.6513 2.18513 21.8538 3.20983 21.9313 4.25642C22.0132 5.33804 22.0347 6.42844 21.9184 7.50567C21.6771 9.74337 20.9059 11.749 19.342 13.3955C19.0189 13.737 18.6139 13.7458 18.2822 13.4086C15.1285 10.2075 11.9791 7.00209 8.82542 3.79662C8.49366 3.45944 8.50661 3.05218 8.84698 2.71938C10.3161 1.27868 12.0911 0.494831 14.0901 0.175162C14.465 0.113855 14.8441 0.0788223 15.2189 0.0437903C15.2534 0.0394113 15.2922 0.0394113 15.3094 0C15.9513 0.00875808 16.5976 0.00875591 17.2439 0.00875591ZM20.4536 8.13625C20.5828 7.48375 20.6474 6.81816 20.6474 6.15254C20.6474 5.53072 20.6604 4.9089 20.5656 4.29146C20.5139 3.52074 20.3545 2.76755 20.1907 2.01435C20.1649 1.89174 20.0873 1.87423 19.9969 1.85233C18.1055 1.40129 16.1969 1.23927 14.2668 1.54142C12.8407 1.76475 11.531 2.27271 10.385 3.18356C10.2558 3.28427 10.2601 3.33244 10.3678 3.44192C13.1251 6.24012 15.8825 9.04271 18.6397 11.8497C18.7475 11.9592 18.7992 11.9635 18.8983 11.8322C19.7298 10.7374 20.2166 9.48935 20.4536 8.13625Z" fill="#8DBF33"/>
<path d="M7.6578 4.82617C7.79137 4.83931 7.92494 4.87434 8.03268 4.96192C8.10157 5.01447 8.16619 5.07578 8.22653 5.13709C11.139 8.0973 14.0514 11.0575 16.9638 14.0178C17.0155 14.0703 17.0672 14.1228 17.1103 14.1798C17.3817 14.5345 17.3128 14.9899 16.9293 15.2088C16.0289 15.7212 15.0682 16.1065 14.0815 16.4087C13.8402 16.4832 13.6292 16.4175 13.4439 16.2555C13.3879 16.2073 13.3405 16.1547 13.2888 16.1022C10.9235 13.6981 8.56257 11.2896 6.18869 8.89431C5.87418 8.57902 5.79663 8.26373 5.94743 7.83458C6.24901 6.96314 6.58074 6.10485 7.00295 5.28597C7.14514 5.00571 7.34333 4.84369 7.6578 4.82617ZM15.4214 14.4338C12.8838 11.8545 10.3548 9.28403 7.82582 6.71353C7.66214 7.06389 7.53718 7.44045 7.38638 7.80833C7.30454 8.01411 7.3476 8.12362 7.49412 8.27248C9.4975 10.2956 11.4922 12.3274 13.487 14.355C13.655 14.5257 13.823 14.6922 13.9868 14.8629C14.0428 14.9199 14.0858 14.968 14.1892 14.933C14.6028 14.7797 15.0164 14.6221 15.4214 14.4338Z" fill="#F17E00"/>
<path d="M7.99474 17.1797C8.18859 17.8102 8.29626 18.4496 8.24887 19.1152C8.16276 20.3107 7.70176 21.3354 6.87456 22.1849C6.62037 22.4476 6.23692 22.4695 5.97842 22.2287C5.12968 21.4492 4.39727 20.5822 4.06122 19.4392C3.97936 19.1678 3.91473 18.8919 3.88027 18.6116C3.86734 18.5065 3.82857 18.4627 3.72517 18.4496C2.25172 18.2481 1.13587 17.4249 0.175113 16.3345C-0.079078 16.0455 -0.0532259 15.6557 0.231123 15.3755C0.980773 14.6398 1.86828 14.1932 2.90228 14.0443C3.66054 13.9348 4.39727 14.0355 5.12537 14.2676C5.23738 14.6442 5.30201 15.0383 5.42695 15.4105C5.52174 15.6864 5.70268 15.9185 5.763 16.2031C4.99612 15.5813 4.13445 15.2792 3.14785 15.3974C2.62224 15.4587 2.13971 15.6382 1.69164 15.9404C2.45853 16.7154 3.37188 17.1008 4.43604 17.1402C4.91426 17.1578 5.15122 17.403 5.17276 17.8891C5.19 18.3795 5.27616 18.8568 5.45711 19.3122C5.6596 19.8289 5.95687 20.28 6.35756 20.6741C6.83578 19.9034 6.99946 19.0889 6.86595 18.2131C6.76682 17.5781 6.48246 17.0307 6.09474 16.5316C6.31017 16.5666 6.48246 16.7067 6.67637 16.7899C7.09858 16.9738 7.54663 17.0746 7.99474 17.1797Z" fill="#F0D500"/>
<path d="M7.99463 17.1787C7.54658 17.0736 7.09854 16.9729 6.67199 16.789C6.4738 16.7058 6.30578 16.5657 6.09038 16.5306C5.97837 16.4168 5.87066 16.3073 5.75864 16.1934C5.69832 15.9044 5.51737 15.6724 5.42259 15.4008C5.29334 15.0242 5.23303 14.6345 5.12101 14.2579C5.04777 13.693 5.0133 13.1281 5.02623 12.5589C5.03915 12.1647 5.08223 11.775 5.13393 11.3853C5.17271 11.0919 5.31057 10.8598 5.59923 10.7591C5.90082 10.654 6.14208 10.7635 6.35752 10.9824C7.9688 12.6201 9.5758 14.2579 11.1914 15.8913C11.4198 16.1234 11.5576 16.3817 11.4327 16.7145C11.312 17.0342 11.0492 17.1349 10.739 17.1787C9.82138 17.3101 8.90801 17.3145 7.99463 17.1787ZM9.22682 15.9176C8.27038 14.9454 7.31823 13.9776 6.36613 13.0099C6.38335 13.7894 6.50397 14.5601 6.84434 15.2914C6.88313 15.3789 6.95202 15.4183 7.03392 15.4534C7.73182 15.7862 8.47285 15.9044 9.22682 15.9176Z" fill="#F17E00"/>
</g>
<defs>
<clipPath id="clip0_1649_4955">
<rect width="22" height="22" fill="white"/>
</clipPath>
</defs>
</svg>
