<svg width="26" height="24" viewBox="0 0 26 24" fill="none" xmlns="http://www.w3.org/2000/svg">
<g clip-path="url(#clip0_3205_925)">
<path d="M25.7679 5.9079C25.6483 5.73066 25.4887 5.5858 25.3026 5.48572C25.1165 5.38563 24.9095 5.33332 24.6993 5.33324H6.93272L5.43256 1.63998C5.23586 1.15361 4.90278 0.73811 4.47555 0.446146C4.04833 0.154181 3.54619 -0.0010947 3.03282 5.80955e-06H0V2.66662H3.03282L9.19986 17.8463C9.29864 18.0892 9.46528 18.2967 9.67879 18.4426C9.89231 18.5885 10.1432 18.6664 10.3997 18.6663H20.7994C21.3415 18.6663 21.8264 18.321 22.0175 17.8023L25.9174 7.13588C25.9911 6.93404 26.016 6.71689 25.99 6.50302C25.9639 6.28915 25.8877 6.08495 25.7679 5.9079ZM19.8986 15.9997H11.2668L8.01689 7.99986H22.8235L19.8986 15.9997Z" fill="#F17E00"/>
<path d="M11.0515 23.9999C12.1284 23.9999 13.0015 23.1045 13.0015 22C13.0015 20.8954 12.1284 20 11.0515 20C9.97458 20 9.10156 20.8954 9.10156 22C9.10156 23.1045 9.97458 23.9999 11.0515 23.9999Z" fill="#F17E00"/>
<path d="M20.1453 23.9999C21.2222 23.9999 22.0952 23.1045 22.0952 22C22.0952 20.8954 21.2222 20 20.1453 20C19.0683 20 18.1953 20.8954 18.1953 22C18.1953 23.1045 19.0683 23.9999 20.1453 23.9999Z" fill="#F17E00"/>
</g>
<defs>
<clipPath id="clip0_3205_925">
<rect width="26" height="24" fill="white"/>
</clipPath>
</defs>
</svg>
