<svg width="21" height="20" viewBox="0 0 21 20" fill="none" xmlns="http://www.w3.org/2000/svg">
  <path fill-rule="evenodd" clip-rule="evenodd" d="M10.7324 1.88609L10.8938 2.04398L11.0552 1.88611C12.145 0.820092 13.5684 0.230757 15.043 0.230469C15.823 0.23112 16.5956 0.395799 17.3165 0.71547C18.0374 1.03517 18.6931 1.504 19.2449 2.09535C21.6085 4.6222 21.6079 8.56668 19.2473 11.0785L11.5357 19.2846L11.5255 19.2995C11.451 19.4089 11.3544 19.4967 11.2444 19.5572C11.1348 19.6175 11.0143 19.6491 10.8926 19.6506C10.5885 19.6501 10.3258 19.4854 10.1888 19.229L10.1744 19.202L2.54032 11.0785C0.179718 8.56764 0.178627 4.62175 2.53894 2.09945C3.09106 1.507 3.74704 1.03741 4.46873 0.716954C5.19034 0.396539 5.96381 0.231352 6.74476 0.230469C8.21937 0.230554 9.64279 0.819908 10.7324 1.88609ZM18.1138 3.34243L18.113 3.34161C16.4542 1.5847 13.6402 1.57994 11.9789 3.34421L11.4596 3.89681C11.384 3.97742 11.295 4.04055 11.198 4.08333C11.1011 4.1261 10.9978 4.14789 10.8938 4.14789C10.7899 4.14789 10.6865 4.1261 10.5896 4.08333C10.4927 4.04055 10.4035 3.97728 10.3279 3.89667L9.80873 3.34421C8.98495 2.46762 7.89729 1.97874 6.74464 1.97874C5.59206 1.97874 4.50046 2.46754 3.67058 3.34598L3.66976 3.34685C1.96821 5.16678 1.9668 8.01634 3.67224 9.83228L10.8938 17.5168L18.1155 9.83223C19.8211 8.01615 19.8193 5.16664 18.1138 3.34243Z" fill="#FF0000" />
</svg>