<svg width="47" height="47" viewBox="0 0 47 47" fill="none" xmlns="http://www.w3.org/2000/svg">
<path d="M41.2966 29.5874C41.7236 28.6244 42.2728 27.7204 42.9305 26.8976C43.9753 25.5082 45.0535 24.0632 44.9979 22.3849C44.9424 20.7065 43.7419 19.2504 42.586 17.9389C41.8876 17.2045 41.293 16.378 40.8187 15.4825C40.4626 14.5358 40.2382 13.5447 40.1517 12.537C39.8961 10.7808 39.6404 8.95798 38.3733 7.75756C37.1062 6.55714 35.3945 6.44599 33.6605 6.3015C32.6013 6.26164 31.5517 6.08607 30.5372 5.77909C29.5773 5.33889 28.6772 4.77866 27.8584 4.11185C26.469 3.1115 25.0241 2 23.3457 2C21.6673 2 20.2112 3.25599 18.8996 4.41195C18.1578 5.12845 17.3198 5.73822 16.4098 6.22369C15.4637 6.5837 14.4726 6.81184 13.4643 6.90171C11.697 7.14624 9.88527 7.40188 8.68483 8.66899C7.4844 9.9361 7.36213 11.6811 7.2621 13.4151C7.22224 14.4742 7.04667 15.5239 6.73969 16.5384C6.29948 17.4982 5.73925 18.3983 5.07242 19.2171C4.0276 20.6176 2.91609 22.0625 3.00501 23.7298C3.09393 25.397 4.26102 26.8642 5.41699 28.1758C6.11532 28.9102 6.70993 29.7366 7.18429 30.6322C7.54555 31.5773 7.77012 32.5691 7.8512 33.5777C8.10685 35.3449 8.3625 37.1567 9.62962 38.3571C10.8967 39.5575 12.6418 39.6798 14.3758 39.7909C15.435 39.8219 16.4853 39.9938 17.4991 40.3022C18.4613 40.7563 19.3616 41.3315 20.1779 42.0139C21.051 42.7365 22.0198 43.3349 23.0567 43.7923C23.5759 43.9993 24.1319 44.0976 24.6906 44.0813C26.4246 44.0257 27.8251 42.8253 29.1367 41.6694C29.8711 40.971 30.6975 40.3764 31.5931 39.9021C32.5398 39.546 33.5309 39.3216 34.5386 39.2352C36.3059 38.9795 38.1177 38.7239 39.3181 37.4568C40.5185 36.1897 40.6075 34.4446 40.7408 32.7107C40.7897 31.6499 40.9765 30.5999 41.2966 29.5874Z" fill="white"/>
<path d="M41.2966 29.5874C41.7236 28.6244 42.2728 27.7204 42.9305 26.8976C43.9753 25.5082 45.0535 24.0632 44.9979 22.3849C44.9424 20.7065 43.7419 19.2504 42.586 17.9389C41.8876 17.2045 41.293 16.378 40.8187 15.4825C40.4626 14.5358 40.2382 13.5447 40.1517 12.537C39.8961 10.7808 39.6404 8.95798 38.3733 7.75756C37.1062 6.55714 35.3945 6.44599 33.6605 6.3015C32.6013 6.26164 31.5517 6.08607 30.5372 5.77909C29.5773 5.33889 28.6772 4.77866 27.8584 4.11185C26.469 3.1115 25.0241 2 23.3457 2C21.6673 2 20.2112 3.25599 18.8996 4.41195C18.1578 5.12845 17.3198 5.73822 16.4098 6.22369C15.4637 6.5837 14.4726 6.81184 13.4643 6.90171C11.697 7.14624 9.88527 7.40188 8.68483 8.66899C7.4844 9.9361 7.36213 11.6811 7.2621 13.4151C7.22224 14.4742 7.04667 15.5239 6.73969 16.5384C6.29948 17.4982 5.73925 18.3983 5.07242 19.2171C4.0276 20.6176 2.91609 22.0625 3.00501 23.7298C3.09393 25.397 4.26102 26.8642 5.41699 28.1758C6.11532 28.9102 6.70993 29.7366 7.18429 30.6322C7.54555 31.5773 7.77012 32.5691 7.8512 33.5777C8.10685 35.3449 8.3625 37.1567 9.62962 38.3571C10.8967 39.5575 12.6418 39.6798 14.3758 39.7909C15.435 39.8219 16.4853 39.9938 17.4991 40.3022C18.4613 40.7563 19.3616 41.3315 20.1779 42.0139C21.051 42.7365 22.0198 43.3349 23.0567 43.7923C23.5759 43.9993 24.1319 44.0976 24.6906 44.0813C26.4246 44.0257 27.8251 42.8253 29.1367 41.6694C29.8711 40.971 30.6975 40.3764 31.5931 39.9021C32.5398 39.546 33.5309 39.3216 34.5386 39.2352C36.3059 38.9795 38.1177 38.7239 39.3181 37.4568C40.5185 36.1897 40.6075 34.4446 40.7408 32.7107C40.7798 31.6551 40.9554 30.609 41.2633 29.5985L41.2966 29.5874ZM39.5071 32.5884C39.3848 34.1779 39.2625 35.6784 38.3956 36.5787C37.5286 37.479 35.9836 37.6902 34.3719 37.957C33.2294 38.0586 32.1069 38.3205 31.0373 38.735C30.0317 39.2552 29.1038 39.9137 28.2808 40.6912C27.0359 41.8027 25.8688 42.7586 24.5795 42.8031C23.2901 42.8475 22.1452 41.9361 20.867 40.9914C19.9617 40.2393 18.9552 39.6182 17.877 39.1463C16.7567 38.7929 15.5941 38.5911 14.4202 38.5461C12.8308 38.4238 11.3302 38.3015 10.441 37.4346C9.55181 36.5676 9.32951 35.0226 9.05163 33.4109C8.95443 32.2688 8.69622 31.1462 8.28469 30.0764C7.75658 29.0729 7.09475 28.1456 6.31731 27.3199C5.2058 26.075 4.2499 24.908 4.20544 23.6186C4.16098 22.3293 5.13911 21.2511 6.09501 19.9729C6.8398 19.0646 7.45685 18.0586 7.92901 16.983C8.28234 15.8627 8.4842 14.7001 8.52922 13.5262C8.65149 11.9368 8.77376 10.4363 9.64074 9.54707C10.5077 8.65787 12.0527 8.43557 13.6644 8.1577C14.8065 8.06049 15.9291 7.80229 16.9989 7.39077C18.0025 6.86266 18.9299 6.20084 19.7555 5.42341C21.0004 4.31192 22.1675 3.35603 23.4568 3.32268C23.8379 3.31643 24.2162 3.3883 24.5683 3.53387C25.4932 3.94786 26.357 4.48637 27.1359 5.13442C28.0443 5.87921 29.0503 6.49625 30.1259 6.9684C31.236 7.31504 32.3872 7.51313 33.5494 7.55749C35.1388 7.67975 36.6394 7.81313 37.5397 8.66899C38.44 9.52484 38.6512 11.0809 38.918 12.6926C39.0152 13.8347 39.2734 14.9573 39.6849 16.0271C40.213 17.0307 40.8748 17.958 41.6523 18.7836C42.7638 20.0285 43.7197 21.1956 43.7642 22.4849C43.8086 23.7742 42.8972 24.9191 41.9413 26.1973C41.1965 27.1057 40.5794 28.1116 40.1073 29.1872C39.754 30.3076 39.5521 31.4701 39.5071 32.644V32.5884Z" fill="#75C94D"/>
<path d="M36.5329 20.5771C36.3296 20.8138 36.1144 21.0401 35.8883 21.2551C35.577 21.533 35.2436 21.7886 34.899 22.0665C35.2121 22.2674 35.4697 22.5436 35.6484 22.8698C35.827 23.196 35.921 23.5619 35.9216 23.9338C35.9222 24.298 35.8332 24.6567 35.6627 24.9784C35.4921 25.3001 35.2452 25.575 34.9435 25.7789C35.173 26.1251 35.3009 26.5287 35.3128 26.944C35.3246 27.3592 35.2198 27.7694 35.0104 28.1281C34.8009 28.4869 34.4952 28.7797 34.1278 28.9735C33.7603 29.1673 33.346 29.2543 32.9316 29.2246C32.9098 29.5544 32.8146 29.8752 32.6531 30.1636C32.4916 30.452 32.2678 30.7008 31.998 30.8918C31.7339 31.0801 31.4329 31.2102 31.1148 31.2734C30.7967 31.3367 30.4688 31.3316 30.1529 31.2586C30.0306 31.5365 29.9528 31.8032 29.8194 32.0478C29.5267 32.5371 29.0571 32.8952 28.5078 33.0481C27.9584 33.2061 27.3693 33.1464 26.8628 32.8814C25.9736 32.4034 25.1066 31.8922 24.2285 31.392L23.9617 31.2475C23.9089 31.337 23.8494 31.4225 23.7839 31.5031C23.5572 31.8493 23.2383 32.1252 22.8632 32.3C22.4882 32.4748 22.0718 32.5414 21.6609 32.4924C21.2691 32.4608 20.8936 32.3216 20.5759 32.0902C20.2581 31.8587 20.0105 31.544 19.8603 31.1808C19.8524 31.1464 19.8378 31.1139 19.8173 31.0852C19.7968 31.0565 19.7708 31.0321 19.7408 31.0135C19.7109 30.9949 19.6775 30.9824 19.6427 30.9768C19.6078 30.9711 19.5722 30.9725 19.5379 30.9807C19.0606 31.0353 18.5784 30.9337 18.1636 30.6913C17.7488 30.4488 17.4238 30.0785 17.2371 29.6358C17.2217 29.5886 17.1893 29.5487 17.1461 29.5241C17.103 29.4994 17.0522 29.4917 17.0037 29.5024C16.5162 29.569 16.0204 29.472 15.594 29.2266C15.1676 28.9812 14.8346 28.6013 14.6473 28.1464C14.5695 27.9908 14.4694 28.0241 14.3583 28.0353C13.8793 28.0815 13.3982 27.9711 12.9873 27.7205C12.5764 27.47 12.2579 27.0929 12.0797 26.6459C11.9545 26.3487 11.8994 26.0267 11.9187 25.7048C11.9379 25.3829 12.0311 25.0698 12.1908 24.7897C12.4576 24.2784 12.7577 23.7893 13.0578 23.2669L11.7462 22.5111L11.4016 22.3222C11.3107 22.276 11.2303 22.2114 11.1657 22.1324C11.1011 22.0534 11.0537 21.9619 11.0265 21.8635C10.9994 21.7652 10.993 21.6623 11.0078 21.5614C11.0226 21.4604 11.0583 21.3637 11.1126 21.2774L15.3253 13.4969C15.3705 13.3965 15.4375 13.3074 15.5213 13.236C15.6051 13.1646 15.7038 13.1127 15.8101 13.084C15.9164 13.0553 16.0277 13.0505 16.1361 13.07C16.2445 13.0895 16.3472 13.1328 16.4368 13.1968L19.5046 14.9529C19.5607 14.9897 19.6264 15.0094 19.6935 15.0094C19.7607 15.0094 19.8263 14.9897 19.8825 14.9529L23.3615 12.9633C23.7197 12.7437 24.1241 12.6103 24.5426 12.5737C24.9612 12.537 25.3826 12.5981 25.7735 12.7522L27.9965 13.5524C28.1109 13.5971 28.2378 13.5971 28.3522 13.5524L30.7753 12.1742C30.8697 12.0975 30.9808 12.044 31.0996 12.018C31.2184 11.992 31.3417 11.9942 31.4595 12.0245C31.5773 12.0547 31.6864 12.1122 31.778 12.1922C31.8696 12.2723 31.9411 12.3727 31.9869 12.4854L36.4329 19.9102L36.6107 20.1992L36.5329 20.5771ZM24.7064 29.9359C25.6623 30.4806 26.6071 31.0474 27.5741 31.5476C27.7219 31.622 27.8912 31.6417 28.0521 31.6032C28.2 31.5782 28.336 31.5064 28.4401 31.3984C28.5441 31.2903 28.6107 31.1517 28.6301 31.003C28.6509 30.8507 28.6248 30.6958 28.5553 30.5588C28.4858 30.4218 28.3762 30.3092 28.2411 30.236L26.5293 29.2913C26.3899 29.2246 26.2751 29.1157 26.2012 28.98C26.1274 28.8442 26.0983 28.6887 26.1181 28.5354C26.1399 28.4174 26.1896 28.3063 26.2629 28.2113C26.3362 28.1162 26.4311 28.0401 26.5398 27.989C26.6484 27.9379 26.7676 27.9135 26.8876 27.9177C27.0075 27.9219 27.1248 27.9545 27.2296 28.013C28.1966 28.5577 29.1525 29.1245 30.1195 29.658C30.3203 29.7537 30.5423 29.7958 30.7642 29.7803C30.9112 29.7539 31.0454 29.6796 31.1459 29.5691C31.2464 29.4585 31.3076 29.3179 31.3199 29.169C31.3442 29.0167 31.3183 28.8606 31.2461 28.7242C31.174 28.5879 31.0594 28.4787 30.9198 28.4132L28.041 26.7682C27.9345 26.7304 27.8379 26.6692 27.7582 26.5891C27.6784 26.5091 27.6177 26.4122 27.5804 26.3055C27.543 26.1989 27.5301 26.0853 27.5425 25.973C27.5549 25.8607 27.5923 25.7526 27.652 25.6567C27.709 25.5674 27.7837 25.4908 27.8715 25.4314C27.9592 25.3721 28.0581 25.3313 28.1622 25.3115C28.2663 25.2917 28.3733 25.2934 28.4767 25.3164C28.58 25.3395 28.6776 25.3834 28.7635 25.4455L30.2974 26.3236L32.5204 27.5795C32.6418 27.6617 32.785 27.7057 32.9316 27.7057C33.0782 27.7057 33.2215 27.6617 33.3429 27.5795C33.4629 27.5039 33.5592 27.3961 33.6208 27.2683C33.6603 27.1379 33.6603 26.9986 33.6208 26.8682C33.599 26.7387 33.5462 26.6165 33.4668 26.512C33.3874 26.4074 33.2839 26.3237 33.1651 26.268C32.0869 25.6011 30.842 24.8897 29.6082 24.2228C29.5076 24.1857 29.4162 24.1273 29.3403 24.0515C29.2643 23.9758 29.2056 23.8846 29.1682 23.7841C29.1308 23.6836 29.1155 23.5762 29.1234 23.4693C29.1313 23.3623 29.1622 23.2583 29.214 23.1644C29.2658 23.0705 29.3373 22.9889 29.4236 22.9252C29.5098 22.8615 29.6088 22.8172 29.7138 22.7952C29.8188 22.7733 29.9272 22.7743 30.0318 22.7982C30.1364 22.822 30.2345 22.8682 30.3196 22.9335L33.2651 24.6007C33.3512 24.6666 33.4506 24.7129 33.5564 24.7363C33.6622 24.7598 33.7718 24.7599 33.8776 24.7366C33.9835 24.7133 34.083 24.6672 34.1691 24.6015C34.2553 24.5358 34.3261 24.4521 34.3766 24.3562C34.4283 24.2689 34.4613 24.1718 34.4735 24.0711C34.4858 23.9704 34.477 23.8682 34.4477 23.7711C34.4185 23.6739 34.3694 23.5839 34.3036 23.5067C34.2378 23.4295 34.1567 23.3668 34.0654 23.3225L24.3396 17.765H24.184H24.0284L22.8613 18.4208C22.0388 18.8876 21.2163 19.3767 20.3827 19.8324C19.8775 20.1115 19.2836 20.1833 18.7265 20.0325C18.1708 19.8874 17.6928 19.5329 17.3927 19.0432C17.0971 18.557 16.9991 17.976 17.1191 17.4198C17.239 16.8636 17.5677 16.3745 18.0374 16.0533C18.0374 16.0533 18.1152 15.9866 18.1819 15.9422L16.3145 14.8307L12.7132 21.3774C13.0467 21.5663 13.3579 21.7331 13.658 21.922C13.7112 21.9704 13.7806 21.9973 13.8525 21.9973C13.9245 21.9973 13.9938 21.9704 14.047 21.922C14.5067 21.5781 15.0817 21.4254 15.6514 21.4959C16.2212 21.5663 16.7416 21.8544 17.1037 22.2999L17.2482 22.4667C17.599 22.2503 18.0031 22.1357 18.4153 22.1357C18.8275 22.1357 19.2316 22.2503 19.5824 22.4667C19.9351 22.6698 20.2253 22.9658 20.4213 23.3226C20.6173 23.6793 20.7116 24.0829 20.6939 24.4896H20.7828C21.3331 24.5449 21.8429 24.8033 22.2129 25.2143C22.5828 25.6254 22.7863 26.1596 22.7835 26.7126C22.8011 26.7512 22.8272 26.7853 22.8599 26.8123C22.8927 26.8393 22.9312 26.8584 22.9725 26.8682C23.4001 26.9306 23.8003 27.1162 24.124 27.4025C24.4478 27.6887 24.6811 28.0631 24.7954 28.4799C24.9358 28.9608 24.9043 29.4756 24.7064 29.9359ZM30.9754 13.7525L28.7523 15.053C28.6249 15.1319 28.4797 15.1777 28.33 15.1863C28.1823 15.1968 28.0342 15.174 27.8965 15.1197L25.2511 14.2193C25.062 14.1383 24.8562 14.104 24.6511 14.1195C24.446 14.135 24.2476 14.1997 24.0729 14.3083L18.9155 17.2537C18.8157 17.3093 18.7287 17.385 18.6598 17.476C18.5503 17.6061 18.4947 17.7731 18.5042 17.9429C18.5058 18.1114 18.569 18.2735 18.682 18.3986C18.802 18.5344 18.9668 18.6225 19.1463 18.647C19.3259 18.6715 19.5082 18.6307 19.6602 18.532C20.9829 17.7872 22.2945 17.0425 23.606 16.309C23.7609 16.2062 23.9426 16.1514 24.1285 16.1514C24.3143 16.1514 24.496 16.2062 24.6509 16.309L30.7753 19.7768L33.4985 21.3329L34.8101 20.2214L30.9754 13.7525ZM19.2378 24.334C19.2313 24.1709 19.1743 24.0138 19.0748 23.8844C18.9752 23.755 18.838 23.6597 18.682 23.6115C18.5174 23.5634 18.3412 23.5737 18.1833 23.6405C18.0253 23.7074 17.8952 23.8267 17.8151 23.9783C17.2371 24.9453 16.7036 25.9234 16.1033 26.8904C16.0375 26.9765 15.9912 27.0759 15.9677 27.1817C15.9443 27.2875 15.9442 27.3971 15.9675 27.503C15.9908 27.6088 16.0369 27.7083 16.1026 27.7945C16.1683 27.8806 16.252 27.9514 16.3479 28.0019C16.4376 28.0536 16.5369 28.0863 16.6398 28.0979C16.7426 28.1096 16.8468 28.1001 16.9458 28.0698C17.0448 28.0396 17.1365 27.9894 17.2153 27.9223C17.2941 27.8551 17.3583 27.7725 17.4038 27.6796C17.9707 26.7237 18.5153 25.7678 19.0822 24.8008C19.1503 24.6704 19.2025 24.5323 19.2378 24.3895V24.334ZM21.3386 26.6681C21.3288 26.5032 21.2708 26.3447 21.1718 26.2124C21.068 26.0856 20.9287 25.9927 20.7717 25.9456C20.6071 25.8954 20.4301 25.9046 20.2716 25.9716C20.1131 26.0387 19.9833 26.1593 19.9047 26.3124C19.4935 27.0016 19.0933 27.6907 18.6932 28.3798C18.6392 28.4646 18.6029 28.5594 18.5866 28.6586C18.5702 28.7577 18.5741 28.8592 18.598 28.9568C18.6219 29.0544 18.6653 29.1462 18.7255 29.2266C18.7858 29.307 18.8618 29.3744 18.9488 29.4246C19.0374 29.4749 19.1352 29.5067 19.2363 29.5182C19.3375 29.5297 19.4399 29.5207 19.5375 29.4916C19.6351 29.4625 19.7258 29.414 19.8042 29.3491C19.8826 29.2841 19.947 29.2039 19.9936 29.1134L21.1941 27.0571C21.2519 26.9313 21.3002 26.8012 21.3386 26.6681ZM14.136 26.557C14.2548 26.5682 14.3744 26.5451 14.4805 26.4903C14.589 26.4331 14.6809 26.3489 14.7473 26.2457C15.1919 25.5047 15.6254 24.7638 16.0478 24.0228C16.1328 23.8582 16.1514 23.6672 16.0997 23.4893C16.048 23.3114 15.9299 23.1602 15.7699 23.0669C15.6094 22.9684 15.4172 22.9354 15.233 22.9747C15.0489 23.014 14.8869 23.1226 14.7806 23.278C14.3138 24.0228 13.8692 24.7675 13.4579 25.501C13.399 25.614 13.3709 25.7405 13.3766 25.8678C13.3823 25.9951 13.4216 26.1186 13.4904 26.2258C13.5593 26.333 13.6552 26.4202 13.7686 26.4783C13.882 26.5365 14.0087 26.5636 14.136 26.557ZM21.9165 31.003C22.0447 31.008 22.1717 30.9772 22.2833 30.914C22.3949 30.8562 22.4875 30.7674 22.5501 30.6584C22.8169 30.2249 23.0725 29.7803 23.3282 29.3246C23.3729 29.242 23.4009 29.1513 23.4104 29.0578C23.42 28.9644 23.4109 28.8699 23.3837 28.78C23.3289 28.5965 23.2055 28.4413 23.0392 28.3465C22.875 28.2497 22.6792 28.2218 22.4945 28.2687C22.3097 28.3132 22.1476 28.424 22.0388 28.5799C21.7609 29.0245 21.4942 29.4802 21.2496 29.947C21.1903 30.0598 21.1634 30.1867 21.1718 30.3138C21.1746 30.437 21.2132 30.5568 21.283 30.6584C21.3456 30.7674 21.4382 30.8562 21.5498 30.914C21.6637 30.971 21.7891 31.0014 21.9165 31.003Z" fill="#75C94D"/>
</svg>
