<svg width="47" height="47" viewBox="0 0 47 47" fill="none" xmlns="http://www.w3.org/2000/svg">
  <path d="M43.473 25.3359L42.8378 24.4683C42.1518 23.5157 42.1349 22.2314 42.8124 21.2788L43.4307 20.4027C44.3792 19.0589 43.9388 17.1876 42.4906 16.4137L41.542 15.9033C40.5087 15.3505 39.9498 14.1937 40.1446 13.037L40.3224 11.9738C40.5934 10.3492 39.3908 8.85229 37.7477 8.78424L36.6806 8.74172C35.5118 8.69068 34.504 7.89968 34.1822 6.76845L33.8857 5.73078C33.4284 4.14876 31.7006 3.33224 30.1931 3.97865L29.2107 4.40393C28.1351 4.87173 26.8901 4.59105 26.1024 3.71498L25.391 2.91547C24.29 1.68218 22.3759 1.69919 21.3003 2.94099L20.5974 3.74901C19.8267 4.63357 18.5817 4.93127 17.5061 4.48048L16.5152 4.07221C14.9991 3.44281 13.2799 4.29336 12.8479 5.88388L12.5684 6.92155C12.2636 8.05277 11.2642 8.86079 10.0954 8.92884L9.02827 8.98838C7.39369 9.08194 6.20798 10.5959 6.50441 12.2119L6.6992 13.2666C6.91094 14.4234 6.36043 15.5801 5.34411 16.15L4.40402 16.6688C2.9727 17.4683 2.5577 19.348 3.52321 20.6749L4.15841 21.5424C4.84442 22.4951 4.86136 23.7794 4.18381 24.732L3.56555 25.6081C2.61699 26.9519 3.05739 28.8231 4.50565 29.5971L5.45421 30.1075C6.48747 30.6603 7.04645 31.8171 6.85165 32.9738L6.6738 34.037C6.40278 35.6615 7.60542 37.1585 9.24847 37.2265L10.3156 37.2691C11.4844 37.3201 12.4922 38.1111 12.8141 39.2423L13.1105 40.28C13.5678 41.862 15.2956 42.6785 16.8031 42.0321L17.7855 41.6069C18.8612 41.1391 20.1061 41.4197 20.8938 42.2958L21.6052 43.0953C22.6978 44.3201 24.6118 44.3031 25.6874 43.0613L26.3904 42.2533C27.1611 41.3687 28.4061 41.071 29.4817 41.5218L30.4726 41.9301C31.9886 42.5595 33.7079 41.7089 34.1398 40.1184L34.4193 39.0807C34.7242 37.9495 35.7236 37.1415 36.8923 37.0734L37.9595 37.0139C39.5941 36.9203 40.7798 35.4064 40.4833 33.7903L40.2885 32.7356C40.0768 31.5789 40.6273 30.4222 41.6436 29.8523L42.5837 29.3335C44.0235 28.5425 44.4385 26.6627 43.473 25.3359Z" fill="#FFF000" />
  <path d="M18.6971 26.9961H16.9393L13.5175 21.3828V26.9961H11.7596V18.4648H13.5175L16.9452 24.0898V18.4648H18.6971V26.9961ZM25.3651 23.2988H21.9901V25.584H25.951V26.9961H20.2323V18.4648H25.9393V19.8887H21.9901V21.9219H25.3651V23.2988ZM33.6268 24.5351L34.7753 18.4648H36.5272L34.6346 26.9961H32.8651L31.4764 21.2891L30.0878 26.9961H28.3182L26.4257 18.4648H28.1776L29.3319 24.5234L30.7382 18.4648H32.2264L33.6268 24.5351Z" fill="#111111" />
</svg>