<svg width="47" height="47" viewBox="0 0 47 47" fill="none" xmlns="http://www.w3.org/2000/svg">
  <path d="M23.5 43C34.2696 43 43 34.2696 43 23.5C43 12.7304 34.2696 4 23.5 4C12.7304 4 4 12.7304 4 23.5C4 34.2696 12.7304 43 23.5 43Z" fill="white" />
  <path d="M28.2813 35.0001C26.5716 35.0001 24.8997 34.695 23.3122 34.0935C22.9489 33.9558 22.7662 33.5501 22.9037 33.1868C23.0414 32.8237 23.4471 32.641 23.8104 32.7785C25.2383 33.3196 26.7425 33.5939 28.2813 33.5939C29.5112 33.5939 30.7272 33.417 31.8956 33.0682C31.8967 33.068 31.8978 33.0676 31.8987 33.0672C31.8987 33.0671 31.8987 33.0669 31.8987 33.0667C31.8973 33.066 31.8953 33.0654 31.8931 33.0647C30.0091 32.4641 28.3077 31.3682 26.973 29.8949C26.7123 29.6071 26.7342 29.1625 27.0221 28.9018C27.3099 28.641 27.7545 28.663 28.0153 28.9507C29.1835 30.2403 30.6721 31.1996 32.3201 31.7247C32.915 31.9142 33.3108 32.4593 33.305 33.0812C33.2993 33.7013 32.8945 34.2376 32.2979 34.4158C30.999 34.8034 29.6476 35.0001 28.2813 35.0001Z" fill="#F17E00" />
  <path d="M25.4625 26.8256C25.1798 26.8256 24.9132 26.654 24.8059 26.3744C24.1163 24.578 23.8975 22.5032 24.1898 20.5326C24.2467 20.1487 24.6041 19.8835 24.9883 19.9403C25.3724 19.9972 25.6378 20.3548 25.5808 20.739C25.3236 22.4739 25.5145 24.2964 26.1188 25.8703C26.2579 26.2329 26.0769 26.6397 25.7143 26.7787C25.6315 26.8106 25.5462 26.8256 25.4625 26.8256Z" fill="#F17E00" />
  <path d="M28.3655 30.5767C28.1113 30.7005 27.7965 30.663 27.5776 30.4586C26.171 29.1456 25.0657 27.3761 24.4654 25.4766C24.3485 25.1064 24.5537 24.7116 24.9239 24.5944C25.2942 24.4773 25.6893 24.6826 25.8064 25.0529C26.3348 26.7253 27.3046 28.2801 28.5371 29.4305C28.821 29.6955 28.8364 30.1405 28.5713 30.4243C28.5109 30.4891 28.4407 30.54 28.3655 30.5767Z" fill="#F17E00" />
  <path d="M19.3957 31.3597C19.1461 31.4925 18.8302 31.4662 18.6042 31.2698C17.1517 30.0076 15.9841 28.2787 15.3166 26.4017C15.1865 26.036 15.3775 25.634 15.7433 25.5037C16.1092 25.3736 16.5114 25.5647 16.6416 25.9306C17.2293 27.5831 18.2538 29.1023 19.5265 30.2081C19.8196 30.4628 19.8508 30.9071 19.596 31.2001C19.5379 31.2671 19.4696 31.3204 19.3957 31.3597Z" fill="#F17E00" />
  <path d="M23.9976 33.7938C23.8254 34.0181 23.527 34.1251 23.2399 34.0399C21.395 33.4929 19.616 32.4031 18.2309 30.9713C17.961 30.6923 17.9683 30.2473 18.2473 29.9772C18.5264 29.7071 18.9716 29.7144 19.2416 29.9935C20.4611 31.2541 22.023 32.2124 23.6395 32.6916C24.0118 32.8019 24.2243 33.1933 24.1137 33.5655C24.0886 33.6506 24.0485 33.7274 23.9976 33.7938Z" fill="#F17E00" />
  <path d="M15.8614 26.5627C15.5818 26.5627 15.3176 26.3948 15.2079 26.1192C14.5608 24.4921 14.2188 22.6678 14.2188 20.8438C14.2188 20.4554 14.5335 20.1406 14.9219 20.1406C15.3102 20.1406 15.625 20.4554 15.625 20.8438C15.625 22.4681 15.9409 24.1572 16.5145 25.5995C16.6581 25.9604 16.4819 26.3693 16.121 26.5127C16.0359 26.5466 15.948 26.5627 15.8614 26.5627Z" fill="#F17E00" />
  <path d="M19.87 16.1564C19.8442 16.1564 19.8182 16.155 19.792 16.152C19.406 16.1094 19.1277 15.7618 19.1703 15.3759C19.4461 12.8812 21.5491 11 24.0622 11C24.4506 11 24.7653 11.3148 24.7653 11.7031C24.7653 12.0915 24.4506 12.4062 24.0622 12.4062C22.267 12.4062 20.765 13.7493 20.5682 15.5304C20.5282 15.8902 20.2237 16.1564 19.87 16.1564Z" fill="#75C94D" />
  <path d="M19.8436 23.6561C19.6085 23.6561 19.3889 23.5386 19.2586 23.343L18.4368 22.1104C18.055 21.5376 17.4436 21.1637 16.7597 21.0848C16.0758 21.0059 15.3954 21.2306 14.893 21.7013L13.6757 22.8417C13.4909 23.0149 13.2271 23.0753 12.9852 22.9997C12.7435 22.9243 12.5609 22.7245 12.5077 22.4768C12.3799 21.8844 12.2815 21.2772 12.2151 20.6719C12.0653 19.3087 12.298 17.9546 12.8882 16.7558C13.7367 15.0302 15.461 13.958 17.3882 13.958C18.278 13.958 19.1352 14.189 19.8929 14.6301C20.6201 14.2517 21.4324 14.0534 22.2675 14.0534C24.1927 14.0534 25.904 15.1046 26.7337 16.7967C27.2859 17.9224 27.578 19.1778 27.578 20.4269V22.2499C27.578 22.5227 27.4201 22.7708 27.1731 22.8867C26.9259 23.0025 26.6342 22.9647 26.4248 22.7901L24.8059 21.4411C24.2896 21.0106 23.6388 20.827 22.9736 20.9233C22.3084 21.0198 21.7367 21.3811 21.3637 21.9403L20.4286 23.343C20.2982 23.5386 20.0787 23.6561 19.8436 23.6561ZM16.4891 19.663C16.6327 19.663 16.7768 19.6712 16.9209 19.6879C18.0162 19.8142 18.9953 20.413 19.6068 21.3303L19.8436 21.6854L20.1937 21.1602C20.7822 20.2775 21.7219 19.6839 22.7718 19.5317C23.8217 19.3794 24.8913 19.6817 25.7063 20.3608L26.1717 20.7486V20.4269C26.1717 19.3913 25.9295 18.3501 25.4712 17.4159C24.8795 16.2093 23.652 15.4596 22.2675 15.4596C21.5459 15.4596 20.8494 15.6621 20.2532 16.0452C20.0113 16.2005 19.6991 16.193 19.4651 16.026C18.8578 15.5931 18.1396 15.3642 17.3882 15.3642C16.0011 15.3642 14.7602 16.1355 14.1499 17.3767C13.6781 18.3353 13.4924 19.4215 13.6129 20.5183C13.6279 20.6543 13.6446 20.7905 13.6631 20.9266L13.9315 20.675C14.63 20.0204 15.5437 19.663 16.4891 19.663Z" fill="#75C94D" />
</svg>